<?xml version="1.0" ?><svg data-name="Layer 23" height="24" id="Layer_23" viewBox="0 0 24 24" width="24" xmlns="http://www.w3.org/2000/svg"><title/><circle cx="10" cy="12" r="7" style="fill:#4c9ae8"/><rect height="12" style="fill:#52c1ff" width="1.5" x="5.75" y="6"/><rect height="14" style="fill:#52c1ff" width="1.5" x="9.25" y="5"/><rect height="12" style="fill:#52c1ff" width="1.5" x="12.75" y="6"/><path d="M19.86194,4H4.13806A2.13806,2.13806,0,0,0,2,6.13806V17.86188A2.13812,2.13812,0,0,0,4.13806,20H19.86194A2.13812,2.13812,0,0,0,22,17.86188V6.13806A2.13806,2.13806,0,0,0,19.86194,4ZM10,18a6,6,0,1,1,6-6A6,6,0,0,1,10,18Z" style="fill:#d9e3e6"/><rect height="2" style="fill:#738394" width="2" x="18" y="6"/></svg>