<?xml version="1.0" ?><svg data-name="Layer 3" height="24" id="Layer_3" viewBox="0 0 24 24" width="24" xmlns="http://www.w3.org/2000/svg"><title/><rect height="14" rx="2" ry="2" style="fill:#738394" width="18" x="3" y="7"/><path d="M18,2a5,5,0,1,0,5,5A5,5,0,0,0,18,2Z" style="fill:#d9e3e6"/><circle cx="6" cy="18" r="1" style="fill:#e3edf0"/><rect height="3" style="fill:#73cdff" width="6" x="9" y="16"/><circle cx="18" cy="18" r="1" style="fill:#d9e3e6"/><path d="M21.46387,9a1.0006,1.0006,0,0,1-1.36621.36621L18,8.15491l-2.09766,1.2113a1.00016,1.00016,0,1,1-1-1.73242L17,6.42249V4a1,1,0,0,1,2,0V6.42249l2.09766,1.2113A.99988.99988,0,0,1,21.46387,9Z" style="fill:#738394"/><path d="M6,2a5,5,0,1,0,5,5A5,5,0,0,0,6,2Z" style="fill:#d9e3e6"/><path d="M9.46387,9a1.0006,1.0006,0,0,1-1.36621.36621L6,8.15491,3.90234,9.36621a1.00016,1.00016,0,0,1-1-1.73242L5,6.42249V4A1,1,0,0,1,7,4V6.42249l2.09766,1.2113A.99988.99988,0,0,1,9.46387,9Z" style="fill:#738394"/></svg>