<?xml version="1.0" ?><svg data-name="Layer 23" height="24" id="Layer_23" viewBox="0 0 24 24" width="24" xmlns="http://www.w3.org/2000/svg"><title/><path d="M9,20H5v2H9a2.00229,2.00229,0,0,0,2-2V16H9Z" style="fill:#52c1ff"/><path d="M15,20V16H13v4a2.00229,2.00229,0,0,0,2,2h4V20Z" style="fill:#fa6d62"/><path d="M16.46039,2H7.53961A1.5396,1.5396,0,0,0,6,3.53961V16.46039A1.53964,1.53964,0,0,0,7.53961,18h8.92078A1.53964,1.53964,0,0,0,18,16.46039V3.53961A1.5396,1.5396,0,0,0,16.46039,2Z" style="fill:#d9e3e6"/><circle cx="12" cy="14" r="2" style="fill:#738394"/><rect height="2" style="fill:#52c1ff" width="4" x="10" y="4"/></svg>