<?xml version="1.0" ?><svg data-name="Layer 3" height="24" id="Layer_3" viewBox="0 0 24 24" width="24" xmlns="http://www.w3.org/2000/svg"><title/><rect height="4" style="fill:#738394" width="12" x="6" y="7"/><path d="M12,20a7.95228,7.95228,0,0,0,4-1.079V12H8v6.921A7.95228,7.95228,0,0,0,12,20Z" style="fill:#738394"/><rect height="4" rx="2" ry="2" style="fill:#d9e3e6" width="20" x="2" y="4"/><path d="M4,10v2a7.99842,7.99842,0,0,0,5,7.413V16a3,3,0,0,1,6,0v3.413A7.99842,7.99842,0,0,0,20,12V10Z" style="fill:#d9e3e6"/><circle cx="12" cy="16" r="1" style="fill:#bae9ff"/></svg>