<?xml version="1.0" ?><svg data-name="Layer 3" height="24" id="Layer_3" viewBox="0 0 24 24" width="24" xmlns="http://www.w3.org/2000/svg"><title/><rect height="7" rx="1" ry="1" style="fill:#738394" width="3" x="19" y="7"/><rect height="5" style="fill:#738394" width="5" x="16" y="8"/><path d="M16.80176,5H3A1,1,0,0,0,2,6v9a1,1,0,0,0,1,1H15.16541a1,1,0,0,0,.98389-.82111l1.63635-9A1,1,0,0,0,16.80176,5Z" style="fill:#d9e3e6"/><circle cx="8" cy="15" r="2" style="fill:#738394"/><polygon points="2 22.238 7.619 16.619 6.381 15.381 2 19.762 2 22.238" style="fill:#738394"/></svg>