<?xml version="1.0" ?><svg data-name="Layer 31" height="24" id="Layer_31" viewBox="0 0 24 24" width="24" xmlns="http://www.w3.org/2000/svg"><title/><polygon points="20 15 18 15 18.5 11 19.5 11 20 15" style="fill:#738394"/><rect height="3" style="fill:#c78657" width="2" x="2" y="18"/><rect height="3" style="fill:#c78657" width="2" x="12" y="18"/><polygon points="21.667 13 16.333 13 17 9 21 9 21.667 13" style="fill:#73cdff"/><path d="M6,9h4a3,3,0,0,1,3,3v5a0,0,0,0,1,0,0H3a0,0,0,0,1,0,0V12A3,3,0,0,1,6,9Z" style="fill:#ffbe4d"/><circle cx="8" cy="14" r="2" style="fill:#fff4ab"/><rect height="6" style="fill:#e3a96b" width="6" x="16" y="15"/><path d="M5,14h6a3,3,0,0,1,3,3v2a0,0,0,0,1,0,0H2a0,0,0,0,1,0,0V17A3,3,0,0,1,5,14Z" style="fill:#fa6d62"/></svg>