<?xml version="1.0" ?><svg data-name="Layer 24" height="24" id="Layer_24" viewBox="0 0 24 24" width="24" xmlns="http://www.w3.org/2000/svg"><title/><circle cx="7.19592" cy="9.80408" r="1.19592" style="fill:#ffbe4d"/><polygon points="15.495 19.13 13.495 19.13 13.495 15.641 16.44 12.072 10.218 5.973 11.618 4.544 19.151 11.928 15.495 16.359 15.495 19.13" style="fill:#b3c1c9"/><path d="M11.39157,2.16221h0a1.97326,1.97326,0,0,1,1.97326,1.97326V9.18831a0,0,0,0,1,0,0H9.41831a0,0,0,0,1,0,0V4.13546A1.97326,1.97326,0,0,1,11.39157,2.16221Z" style="fill:#fa6d62" transform="translate(7.34953 -6.39281) rotate(45)"/><path d="M10.63975,6.43215a4.64417,4.64417,0,0,1,0,6.56785L4.07191,6.43215A4.64417,4.64417,0,0,1,10.63975,6.43215Z" style="fill:#fa6d62"/><path d="M18,21H10.991A3.50449,3.50449,0,1,1,18,21Z" style="fill:#738394"/></svg>