<?xml version="1.0" ?><svg data-name="Layer 23" height="24" id="Layer_23" viewBox="0 0 24 24" width="24" xmlns="http://www.w3.org/2000/svg"><title/><path d="M18,2H6A2,2,0,0,0,4,4V20a2,2,0,0,0,2,2H18a2,2,0,0,0,2-2V4A2,2,0,0,0,18,2Z" style="fill:#738394"/><path d="M18,2H6A2,2,0,0,0,4,4V20a2,2,0,0,0,2,2H18a2,2,0,0,0,2-2V4A2,2,0,0,0,18,2Z" style="fill:#4c9ae8"/><path d="M18,22H6a2,2,0,0,1-2-2V8H20V20A2,2,0,0,1,18,22Z" style="fill:#73cdff"/><circle cx="12" cy="5" r="1" style="fill:#fff"/><path d="M12.11139,18.657a3.17124,3.17124,0,0,0,2.18451-5.4726L12.11139,11,9.92694,13.18445a3.17119,3.17119,0,0,0,2.18445,5.4726Z" style="fill:#fff"/></svg>