<?xml version="1.0" ?><svg data-name="Layer 23" height="24" id="Layer_23" viewBox="0 0 24 24" width="24" xmlns="http://www.w3.org/2000/svg"><title/><rect height="20" rx="2" ry="2" style="fill:#4c9ae8" width="16" x="4" y="2"/><circle cx="14.5" cy="16.5" r="2.5" style="fill:#fff"/><path d="M14.5,14.5a2,2,0,1,1-2,2,2.00227,2.00227,0,0,1,2-2m0-1.5A3.5,3.5,0,1,0,18,16.5,3.5,3.5,0,0,0,14.5,13Z" style="fill:#73cdff"/><path d="M9.5,11A5.5,5.5,0,1,0,15,16.5,5.5,5.5,0,0,0,9.5,11Z" style="fill:#4c9ae8;opacity:0.5"/><circle cx="9.5" cy="16.5" r="2.5" style="fill:#fff"/><path d="M9.5,14.5a2,2,0,1,1-2,2,2.00227,2.00227,0,0,1,2-2m0-1.5A3.5,3.5,0,1,0,13,16.5,3.5,3.5,0,0,0,9.5,13Z" style="fill:#73cdff"/><circle cx="7" cy="5" r="1" style="fill:#fff"/><path d="M10.68164,8.09324,9.5884,7,8.49516,8.09324a1.5884,1.5884,0,1,0,2.18648,0Z" style="fill:#d9f3ff"/><path d="M15.50484,8.09324,14.4116,7,13.31836,8.09324a1.5884,1.5884,0,1,0,2.18648,0Z" style="fill:#d9f3ff"/></svg>