<?xml version="1.0" ?><svg data-name="Layer 23" height="24" id="Layer_23" viewBox="0 0 24 24" width="24" xmlns="http://www.w3.org/2000/svg"><title/><path d="M9,14h6a0,0,0,0,1,0,0v6a2,2,0,0,1-2,2H11a2,2,0,0,1-2-2V14A0,0,0,0,1,9,14Z" style="fill:#738394"/><rect height="12" rx="1" ry="1" style="fill:#fff" width="8" x="8" y="3"/><path d="M14,4a1.00113,1.00113,0,0,1,1,1v8a1.00113,1.00113,0,0,1-1,1H10a1.00113,1.00113,0,0,1-1-1V5a1.00113,1.00113,0,0,1,1-1h4m0-2H10A3,3,0,0,0,7,5v8a3,3,0,0,0,3,3h4a3,3,0,0,0,3-3V5a3,3,0,0,0-3-3Z" style="fill:#4c9ae8"/></svg>