<?xml version="1.0" ?><svg data-name="Layer 23" height="24" id="Layer_23" viewBox="0 0 24 24" width="24" xmlns="http://www.w3.org/2000/svg"><title/><circle cx="12" cy="12" r="8" style="fill:#4c9ae8"/><rect height="14" style="fill:#52c1ff" width="2" x="7" y="5"/><rect height="14" style="fill:#52c1ff" width="2" x="11" y="5"/><rect height="14" style="fill:#52c1ff" width="2" x="15" y="5"/><path d="M19,3H5A2,2,0,0,0,3,5V19a2,2,0,0,0,2,2H19a2,2,0,0,0,2-2V5A2,2,0,0,0,19,3ZM12,19a7,7,0,1,1,7-7A7,7,0,0,1,12,19Z" style="fill:#d9e3e6"/></svg>