<?xml version="1.0" ?><svg data-name="Layer 23" height="24" id="Layer_23" viewBox="0 0 24 24" width="24" xmlns="http://www.w3.org/2000/svg"><title/><circle cx="12" cy="12" r="8" style="fill:#738394"/><path d="M19,3H5A2,2,0,0,0,3,5V19a2,2,0,0,0,2,2H19a2,2,0,0,0,2-2V5A2,2,0,0,0,19,3ZM7.47156,15.11438,6.39941,16.18652a6.962,6.962,0,0,1,0-8.373L7.47156,8.88562a5.47743,5.47743,0,0,0,0,6.22876ZM12,19a6.95917,6.95917,0,0,1-4.18652-1.39941l1.07214-1.07214a5.47743,5.47743,0,0,0,6.22876,0l1.07214,1.07214A6.95917,6.95917,0,0,1,12,19Zm1.41406-7,2.0191-2.0191a3.87952,3.87952,0,0,1,0,4.03821Zm.605,3.43317a3.87952,3.87952,0,0,1-4.03821,0L12,13.41406ZM12,10.58594,9.9809,8.56683a3.87952,3.87952,0,0,1,4.03821,0ZM10.58594,12l-2.0191,2.0191a3.87952,3.87952,0,0,1,0-4.03821Zm4.52844-4.52844a5.47743,5.47743,0,0,0-6.22876,0L7.81348,6.39941a6.962,6.962,0,0,1,8.373,0Zm2.48621,8.715-1.07214-1.07214a5.47743,5.47743,0,0,0,0-6.22876l1.07214-1.07214a6.962,6.962,0,0,1,0,8.373Z" style="fill:#d9e3e6"/><circle cx="18" cy="18" r="1" style="fill:#4eba94"/></svg>