<?xml version="1.0" ?><svg data-name="Layer 23" height="24" id="Layer_23" viewBox="0 0 24 24" width="24" xmlns="http://www.w3.org/2000/svg"><title/><rect height="10" style="fill:#c8d1d4" width="2" x="11" y="11"/><path d="M11.48052,10.52095a23.59059,23.59059,0,0,0-5.71963-.07309c-3.11088.56791-1.09731,6.204,3.70376,4.94715a7.21819,7.21819,0,0,0,2.146-.99975,1.79957,1.79957,0,0,0,.59423-2.26783C11.941,11.56868,11.69653,11.02138,11.48052,10.52095Z" style="fill:#d9e3e6"/><path d="M17.99732,10.00288A6.77872,6.77872,0,0,0,15.96409,8.631a1.806,1.806,0,0,0-2.21627.63215c-.34082.4874-.67854.95064-.98943,1.36653A23.376,23.376,0,0,0,15.5648,15.6841C17.61208,18.09423,21.48632,13.53232,17.99732,10.00288Z" style="fill:#d9e3e6"/><path d="M9.06126,5.30939a7.31268,7.31268,0,0,0-.20225,2.455,1.80445,1.80445,0,0,0,1.65405,1.63906c.60343.05411,1.18041.1172,1.69508.17985a23.97391,23.97391,0,0,0,2.98938-5.00785C16.26112,1.59737,10.37341.52312,9.06126,5.30939Z" style="fill:#d9e3e6"/><circle cx="12.09453" cy="10.25266" r="1.96699" style="fill:#738394"/><rect height="2" rx="1" ry="1" style="fill:#738394" width="8" x="8" y="20"/></svg>