<?xml version="1.0" ?><svg data-name="Layer 23" height="24" id="Layer_23" viewBox="0 0 24 24" width="24" xmlns="http://www.w3.org/2000/svg"><title/><rect height="5" style="fill:#c8d1d4" width="2" x="11" y="16"/><rect height="2" rx="1" ry="1" style="fill:#738394" width="8" x="8" y="20"/><circle cx="12" cy="10" r="8" style="fill:#73cdff"/><path d="M11.57735,10.15859a17.15,17.15,0,0,0-4.15808-.05314c-2.26156.41286-.79772,4.5102,2.69257,3.5965a5.99928,5.99928,0,0,0,2.45594-1.43723C12.197,11.551,11.8549,10.80159,11.57735,10.15859Z" style="fill:#fff"/><path d="M16.315,9.782a5.80281,5.80281,0,0,0-2.52074-1.38c-.42662.65738-.8878,1.30045-1.28788,1.83564a16.994,16.994,0,0,0,2.04022,3.67449C16.0349,15.66425,18.85141,12.34781,16.315,9.782Z" style="fill:#fff"/><path d="M9.81859,6.36987A6.0369,6.0369,0,0,0,9.846,9.27045c.799.04476,1.6002.1261,2.26037.20647a17.42866,17.42866,0,0,0,2.17323-3.64063C15.05278,3.67129,10.7725,2.89033,9.81859,6.36987Z" style="fill:#fff"/><circle cx="12.02373" cy="9.96355" r="1.42997" style="fill:#52c1ff"/></svg>