<?xml version="1.0" ?><svg data-name="Layer 23" height="24" id="Layer_23" viewBox="0 0 24 24" width="24" xmlns="http://www.w3.org/2000/svg"><title/><path d="M12,13h1.5A1.5,1.5,0,0,1,15,14.5v1A1.5,1.5,0,0,1,13.5,17H12a0,0,0,0,1,0,0V13A0,0,0,0,1,12,13Z" style="fill:#738394"/><rect height="14" style="fill:#c8d1d4" width="2" x="11" y="7"/><rect height="2" rx="1" ry="1" style="fill:#738394" width="6" x="9" y="20"/><path d="M11.54612,7.457a20.12721,20.12721,0,0,0-4.66163-.05689c-2.53544.442-.89433,4.82857,3.01865,3.85037a6.01369,6.01369,0,0,0,1.74907-.7781,1.36352,1.36352,0,0,0,.48431-1.76505C11.92141,8.27243,11.72218,7.84647,11.54612,7.457Z" style="fill:#d9e3e6"/><path d="M16.85747,7.05377A5.54642,5.54642,0,0,0,15.20034,5.986a1.51279,1.51279,0,0,0-1.80631.492c-.27777.37934-.553.73989-.80641,1.06357a17.97838,17.97838,0,0,0,2.28729,3.93387C16.54349,13.35128,19.70109,9.80073,16.85747,7.05377Z" style="fill:#d9e3e6"/><path d="M9.57437,3.40081a5.44407,5.44407,0,0,0-.16483,1.9107A1.43943,1.43943,0,0,0,10.75763,6.5872c.49181.04211.96207.09121,1.38153.14a18.49858,18.49858,0,0,0,2.43641-3.89761C15.44243.51175,10.64381-.32435,9.57437,3.40081Z" style="fill:#d9e3e6"/><circle cx="11.99534" cy="7.07789" r="1.21462" style="fill:#738394"/></svg>