<?xml version="1.0" ?><svg data-name="Layer 31" height="24" id="Layer_31" viewBox="0 0 24 24" width="24" xmlns="http://www.w3.org/2000/svg"><title/><rect height="3" style="fill:#738394" width="1.5" x="7.5" y="8"/><path d="M8.25,2a3.27906,3.27906,0,0,0-3,3.5,3.27906,3.27906,0,0,0,3,3.5,3.27906,3.27906,0,0,0,3-3.5,3.27906,3.27906,0,0,0-3-3.5Z" style="fill:#73cdff"/><polygon points="17.125 10 15.375 10 14.5 7.35 18 7.35 17.125 10" style="fill:#8799d6"/><ellipse cx="16.25" cy="5" rx="0.87054" ry="2.03125" style="fill:#fa6d62" transform="translate(3.79487 16.57291) rotate(-60)"/><ellipse cx="16.25" cy="5" rx="2.03125" ry="0.87054" style="fill:#fa6d62" transform="translate(-0.32291 8.79487) rotate(-30)"/><ellipse cx="16.25" cy="5" rx="0.87054" ry="2.03125" style="fill:#fa6d62"/><path d="M20,22H4V10H20Z" style="fill:#ffd58c"/><rect height="2" style="fill:#e3a96b" width="16" x="4" y="15"/></svg>