<?xml version="1.0" ?><svg data-name="Layer 3" height="24" id="Layer_3" viewBox="0 0 24 24" width="24" xmlns="http://www.w3.org/2000/svg"><title/><rect height="16" rx="2" ry="2" style="fill:#e3edf0" width="20" x="2" y="4"/><path d="M12,10a2,2,0,1,1-2,2,2.00227,2.00227,0,0,1,2-2m0-2a4,4,0,1,0,4,4,4,4,0,0,0-4-4Z" style="fill:#4eba94"/><path d="M2,6V9H4V6H7V4H4A2,2,0,0,0,2,6Z" style="fill:#738394"/><path d="M17,4V6h3V9h2V6a2,2,0,0,0-2-2Z" style="fill:#738394"/><path d="M4,15H2v3a2,2,0,0,0,2,2H7V18H4Z" style="fill:#738394"/><path d="M20,18H17v2h3a2,2,0,0,0,2-2V15H20Z" style="fill:#738394"/></svg>