<?xml version="1.0" ?><svg data-name="Layer 23" height="24" id="Layer_23" viewBox="0 0 24 24" width="24" xmlns="http://www.w3.org/2000/svg"><title/><path d="M18,5H6A2,2,0,0,0,4,7V20a2,2,0,0,0,2,2H18a2,2,0,0,0,2-2V7A2,2,0,0,0,18,5Z" style="fill:#4c9ae8"/><path d="M18,2H6A2,2,0,0,0,4,4V8H20V4A2,2,0,0,0,18,2Z" style="fill:#d9e3e6"/><rect height="2" style="fill:#4eba94" width="2" x="16" y="4"/><rect height="2" style="fill:#738394" width="2" x="12" y="4"/><rect height="2" style="fill:#738394" width="4" x="6" y="4"/><polygon points="15.089 12.351 12.75 13.701 12.75 11 11.25 11 11.25 13.701 8.911 12.351 8.161 13.649 10.5 15 8.161 16.351 8.911 17.649 11.25 16.299 11.25 19 12.75 19 12.75 16.299 15.089 17.649 15.839 16.351 13.5 15 15.839 13.649 15.089 12.351" style="fill:#fff"/></svg>