<?xml version="1.0" ?><svg data-name="Layer 3" height="24" id="Layer_3" viewBox="0 0 24 24" width="24" xmlns="http://www.w3.org/2000/svg"><title/><path d="M8,3H9a1,1,0,0,1,1,1V6a0,0,0,0,1,0,0H7A0,0,0,0,1,7,6V4A1,1,0,0,1,8,3Z" style="fill:#738394"/><path d="M15,3h1a1,1,0,0,1,1,1V6a0,0,0,0,1,0,0H14a0,0,0,0,1,0,0V4A1,1,0,0,1,15,3Z" style="fill:#738394"/><path d="M18,5H6A4,4,0,0,0,2,9v9.5a2.5,2.5,0,0,0,5,0V15H17v3.5a2.5,2.5,0,0,0,5,0V9A4,4,0,0,0,18,5Z" style="fill:#d9e3e6"/><path d="M10,10.5a.5.5,0,0,1-.5.5H8v1.5a.5.5,0,0,1-.5.5h-1a.5.5,0,0,1-.5-.5V11H4.5a.5.5,0,0,1-.5-.5v-1A.5.5,0,0,1,4.5,9H6V7.5A.5.5,0,0,1,6.5,7h1a.5.5,0,0,1,.5.5V9H9.5a.5.5,0,0,1,.5.5Z" style="fill:#738394"/><circle cx="9.5" cy="15.5" r="1.5" style="fill:#738394"/><circle cx="14.5" cy="15.5" r="1.5" style="fill:#738394"/><circle cx="17" cy="8" r="1" style="fill:#52c1ff"/><circle cx="15" cy="10" r="1" style="fill:#4eba94"/><circle cx="17" cy="12" r="1" style="fill:#738394"/><circle cx="19" cy="10" r="1" style="fill:#fa6d62"/></svg>