<?xml version="1.0" ?><svg data-name="Layer 23" height="24" id="Layer_23" viewBox="0 0 24 24" width="24" xmlns="http://www.w3.org/2000/svg"><title/><rect height="5" style="fill:#fa6d62" width="14" x="5" y="4"/><path d="M19.10266,4H19V8H17V4H15V8H13V4H11V8H9V4H7V8H5V4H4.89734A1.89736,1.89736,0,0,0,3,5.89734V16.1026A1.89738,1.89738,0,0,0,4.89734,18H19.10266A1.89738,1.89738,0,0,0,21,16.1026V5.89734A1.89736,1.89736,0,0,0,19.10266,4Z" style="fill:#d9e3e6"/><rect height="2" style="fill:#9da9b0" width="2" x="5" y="18"/><rect height="2" style="fill:#9da9b0" width="2" x="17" y="18"/><circle cx="18" cy="15" r="1" style="fill:#738394"/><circle cx="18" cy="11" r="1" style="fill:#738394"/><rect height="4" style="fill:#fff4ab" width="2" x="7" y="4"/><rect height="4" style="fill:#fff4ab" width="2" x="11" y="4"/><rect height="4" style="fill:#fff4ab" width="2" x="15" y="4"/></svg>