<?xml version="1.0" ?><svg data-name="Layer 23" height="24" id="Layer_23" viewBox="0 0 24 24" width="24" xmlns="http://www.w3.org/2000/svg"><title/><path d="M19,6h2a0,0,0,0,1,0,0V8a0,0,0,0,1,0,0H19a1,1,0,0,1-1-1V7A1,1,0,0,1,19,6Z" style="fill:#fa6d62" transform="translate(39 14) rotate(-180)"/><path d="M19,10h2a0,0,0,0,1,0,0v2a0,0,0,0,1,0,0H19a1,1,0,0,1-1-1v0A1,1,0,0,1,19,10Z" style="fill:#4eba94" transform="translate(39 22) rotate(180)"/><path d="M19,14h2a0,0,0,0,1,0,0v2a0,0,0,0,1,0,0H19a1,1,0,0,1-1-1v0A1,1,0,0,1,19,14Z" style="fill:#b3c1c9" transform="translate(39 30) rotate(180)"/><rect height="12" style="fill:#d9e3e6" width="12" x="6" y="5"/><rect height="14" rx="1" ry="1" style="fill:#738394" width="2" x="5" y="4"/><rect height="14" rx="1" ry="1" style="fill:#738394" width="2" x="9" y="4"/><rect height="14" rx="1" ry="1" style="fill:#738394" width="2" x="13" y="4"/><rect height="14" rx="1" ry="1" style="fill:#738394" width="2" x="17" y="4"/><path d="M4,6H6A0,0,0,0,1,6,6V8A0,0,0,0,1,6,8H4A1,1,0,0,1,3,7V7A1,1,0,0,1,4,6Z" style="fill:#738394"/><path d="M4,14H6a0,0,0,0,1,0,0v2a0,0,0,0,1,0,0H4a1,1,0,0,1-1-1v0A1,1,0,0,1,4,14Z" style="fill:#738394"/><rect height="4" style="fill:#738394" width="2" x="5" y="16"/><rect height="4" style="fill:#738394" width="2" x="17" y="16"/></svg>