<?xml version="1.0" ?><svg data-name="Layer 23" height="24" id="Layer_23" viewBox="0 0 24 24" width="24" xmlns="http://www.w3.org/2000/svg"><title/><path d="M13.30969,3H11.69031A1.6903,1.6903,0,0,0,10,4.69031V6h5V4.69031A1.6903,1.6903,0,0,0,13.30969,3Z" style="fill:#738394"/><path d="M5,7H7A0,0,0,0,1,7,7v7a0,0,0,0,1,0,0H5a2,2,0,0,1-2-2V9A2,2,0,0,1,5,7Z" style="fill:#738394"/><path d="M16,5H9A3,3,0,0,0,6,8v9a4,4,0,0,0,4,4h5a4,4,0,0,0,4-4V8a3,3,0,0,0-3-3Z" style="fill:#fa6d62"/><polygon points="22 5 16 5 18 7 19 12 22 5 22 5" style="fill:#fa6d62"/><rect height="8" rx="1.5" ry="1.5" style="fill:#fff" width="3" x="11" y="9"/></svg>