<?xml version="1.0" ?><svg data-name="Layer 31" height="24" id="Layer_31" viewBox="0 0 24 24" width="24" xmlns="http://www.w3.org/2000/svg"><title/><path d="M8,2H8A1,1,0,0,1,9,3V5A0,0,0,0,1,9,5H7A0,0,0,0,1,7,5V3A1,1,0,0,1,8,2Z" style="fill:#738394"/><rect height="14" style="fill:#d9e3e6" width="20" x="2" y="7"/><rect height="6" style="fill:#ffbe4d" width="8" x="4" y="13"/><polygon points="18 9 18 10 16 10 16 9 14 9 14 13 20 13 20 9 18 9" style="fill:#4eba94"/><polygon points="18 15 18 16 16 16 16 15 14 15 14 19 20 19 20 15 18 15" style="fill:#4eba94"/><rect height="2" style="fill:#c78657" width="4" x="6" y="13"/><circle cx="5" cy="10" r="1" style="fill:#738394"/><circle cx="8" cy="10" r="1" style="fill:#738394"/><circle cx="11" cy="10" r="1" style="fill:#738394"/><path d="M8,3H8a3,3,0,0,1,3,3V7a0,0,0,0,1,0,0H5A0,0,0,0,1,5,7V6A3,3,0,0,1,8,3Z" style="fill:#fa6d62"/><rect height="1.49984" style="fill:#fa6d62" transform="translate(0.49695 8.69975) rotate(-45)" width="2.12132" x="9.68934" y="3.00008"/></svg>