<?xml version="1.0" ?><svg data-name="Layer 31" height="24" id="Layer_31" viewBox="0 0 24 24" width="24" xmlns="http://www.w3.org/2000/svg"><title/><rect height="4" style="fill:#4c9ae8" width="2" x="5" y="3"/><rect height="4" style="fill:#fa6d62" width="2" x="9" y="3"/><rect height="4" style="fill:#4c9ae8" width="2" x="13" y="3"/><rect height="4" style="fill:#fa6d62" width="2" x="14" y="12"/><rect height="4" style="fill:#4c9ae8" width="2" x="10" y="12"/><polygon points="6 10 5 10 5 8 5 7 7 7 7 8 6 10" style="fill:#ba7d51"/><polygon points="18 10 19 10 19 8 19 7 17 7 17 8 18 10" style="fill:#ba7d51"/><polygon points="6 19 5 19 5 17 5 16 7 16 7 17 6 19" style="fill:#ba7d51"/><polygon points="18 19 19 19 19 17 19 16 17 16 17 17 18 19" style="fill:#ba7d51"/><rect height="2" style="fill:#e3a96b" width="18" x="3" y="6"/><rect height="2" style="fill:#e3a96b" width="18" x="3" y="15"/></svg>