<?xml version="1.0" ?><svg data-name="Layer 31" height="24" id="Layer_31" viewBox="0 0 24 24" width="24" xmlns="http://www.w3.org/2000/svg"><title/><path d="M12,17H4V10A1,1,0,0,1,5,9h6a1,1,0,0,1,1,1Z" style="fill:#ffbe4d"/><rect height="7" style="fill:#c78657" width="2" x="3" y="14"/><rect height="7" style="fill:#c78657" width="2" x="11" y="14"/><path d="M3,13H6a0,0,0,0,1,0,0v2a0,0,0,0,1,0,0H2a0,0,0,0,1,0,0V14A1,1,0,0,1,3,13Z" style="fill:#ffd859"/><path d="M10,13h3a1,1,0,0,1,1,1v1a0,0,0,0,1,0,0H10a0,0,0,0,1,0,0V13A0,0,0,0,1,10,13Z" style="fill:#ffd859"/><rect height="12" style="fill:#c78657" width="2" x="16" y="8"/><polygon points="21 9 13 9 14 3 20 3 21 9" style="fill:#fa6d62"/><path d="M19.5,21h-5a2.5,2.5,0,0,1,5,0Z" style="fill:#d9925f"/><rect height="4" style="fill:#ffd859" width="10" x="3" y="15"/></svg>