<?xml version="1.0" ?><svg data-name="Layer 23" height="24" id="Layer_23" viewBox="0 0 24 24" width="24" xmlns="http://www.w3.org/2000/svg"><title/><path d="M20,5H15V19h5a2,2,0,0,0,2-2V7A2,2,0,0,0,20,5Z" style="fill:#738394"/><path d="M16,5H4A2,2,0,0,0,2,7V17a2,2,0,0,0,2,2H16Z" style="fill:#fa6d62"/><circle cx="19" cy="12" r="1" style="fill:#fff"/><circle cx="19" cy="8" r="1" style="fill:#fff"/><path d="M7.25,10.31055l1.21973,1.21973a.74973.74973,0,0,0,1.06055,0L10.75,10.31055l1.75,1.75L13.56055,11,11.28027,8.71973a.74973.74973,0,0,0-1.06055,0L9,9.93945,7.78027,8.71973a.74973.74973,0,0,0-1.06055,0L4.43945,11,5.5,12.06055Z" style="fill:#fff"/><path d="M7.25,14.14795l1.21973,1.21973a.74973.74973,0,0,0,1.06055,0L10.75,14.14795l1.75,1.75,1.06055-1.06055-2.28027-2.28027a.74973.74973,0,0,0-1.06055,0L9,13.77686,7.78027,12.55713a.74973.74973,0,0,0-1.06055,0L4.43945,14.8374,5.5,15.89795Z" style="fill:#fff"/></svg>