<?xml version="1.0" ?><svg data-name="Layer 31" height="24" id="Layer_31" viewBox="0 0 24 24" width="24" xmlns="http://www.w3.org/2000/svg"><title/><circle cx="13.12612" cy="6.67388" r="1.22612" style="fill:#ffbe4d"/><polygon points="18 12 16.5 12 16.5 10.781 18.179 8.151 14.675 4.61 15.742 3.556 20.088 7.948 18 11.219 18 12" style="fill:#e36359"/><path d="M15.35247,2.31652h.25226a1,1,0,0,1,1,1V6.32629a0,0,0,0,1,0,0H14.35247a0,0,0,0,1,0,0V3.31652A1,1,0,0,1,15.35247,2.31652Z" style="fill:#fa6d62" transform="translate(7.58927 -9.67931) rotate(45)"/><path d="M15.02214,4.77786a2.65041,2.65041,0,0,1,0,3.74824L11.2739,4.77786A2.65041,2.65041,0,0,1,15.02214,4.77786Z" style="fill:#fa6d62"/><path d="M19.25,13c0,1.10457-4,1.10457-4,0a2,2,0,0,1,4,0Z" style="fill:#fa6d62"/><rect height="5" style="fill:#fa6d62" width="2" x="5" y="9"/><rect height="5" style="fill:#73cdff" width="2" x="9" y="9"/><rect height="5" style="fill:#ffbe4d" width="2" x="7" y="9"/><rect height="8" style="fill:#c78657" width="2" x="4" y="14"/><rect height="8" style="fill:#c78657" width="2" x="18" y="14"/><rect height="2" style="fill:#e3a96b" width="18" x="3" y="13"/></svg>