<?xml version="1.0" ?><svg data-name="Layer 31" height="24" id="Layer_31" viewBox="0 0 24 24" width="24" xmlns="http://www.w3.org/2000/svg"><title/><path d="M8.33008,22.0498a.73041.73041,0,0,1-.17041-.01953.75013.75013,0,0,1-.56055-.90039l1-4.2998a.75.75,0,1,1,1.46094.33984l-1,4.2998A.74994.74994,0,0,1,8.33008,22.0498Z" style="fill:#738394"/><path d="M14.3291,22.0498a.74954.74954,0,0,1-.73-.58008l-1-4.2998a.75.75,0,0,1,1.46094-.33984l1,4.2998a.75013.75013,0,0,1-.56055.90039A.73041.73041,0,0,1,14.3291,22.0498Z" style="fill:#738394"/><rect height="8" style="fill:#c78657" width="2" x="4" y="14"/><rect height="8" style="fill:#c78657" width="2" x="18" y="14"/><polygon points="18.75 12 17.25 12 17.25 10.781 18.929 8.151 15.425 4.61 16.492 3.556 20.838 7.948 18.75 11.219 18.75 12" style="fill:#e36359"/><circle cx="13.92612" cy="6.57388" r="1.22612" style="fill:#ffbe4d"/><path d="M16.10247,2.31652h.25226a1,1,0,0,1,1,1V6.32629a0,0,0,0,1,0,0H15.10247a0,0,0,0,1,0,0V3.31652A1,1,0,0,1,16.10247,2.31652Z" style="fill:#fa6d62" transform="translate(7.80894 -10.20964) rotate(45)"/><path d="M20,13c0,1.10457-4,1.10457-4,0a2,2,0,0,1,4,0Z" style="fill:#fa6d62"/><path d="M15.77214,4.77786a2.65041,2.65041,0,0,1,0,3.74824L12.0239,4.77786A2.65041,2.65041,0,0,1,15.77214,4.77786Z" style="fill:#fa6d62"/><rect height="2" style="fill:#e3a96b" width="18" x="3" y="13"/><path d="M12.18581,18H10.47346a2.81386,2.81386,0,0,1-2.79665-3.1246L8.32963,9h6l.65282,5.8754A2.81386,2.81386,0,0,1,12.18581,18Z" style="fill:#4c9ae8"/></svg>