<?xml version="1.0" ?><svg data-name="Layer 23" height="24" id="Layer_23" viewBox="0 0 24 24" width="24" xmlns="http://www.w3.org/2000/svg"><title/><path d="M18,2H6A2,2,0,0,0,4,4V20a2,2,0,0,0,2,2H18a2,2,0,0,0,2-2V4A2,2,0,0,0,18,2Z" style="fill:#d9e3e6"/><rect height="11" style="fill:#fa6d62" width="16" x="4" y="8"/><circle cx="12" cy="5" r="1" style="fill:#738394"/><circle cx="7" cy="5" r="1" style="fill:#738394"/><circle cx="17" cy="5" r="1" style="fill:#738394"/><path d="M9.70947,17l-.84863-1.27295a1.82114,1.82114,0,0,1,.22705-2.2915l.76367-.76367a.31773.31773,0,0,0,.03955-.39893L9.04248,11l1.248-.832.84863,1.27295a1.82114,1.82114,0,0,1-.22705,2.2915l-.76367.76367a.31773.31773,0,0,0-.03955.39893l.84863,1.27295Z" style="fill:#fff"/><path d="M13.70947,17l-.84863-1.27295a1.82114,1.82114,0,0,1,.22705-2.2915l.76367-.76367a.31773.31773,0,0,0,.03955-.39893L13.04248,11l1.248-.832.84863,1.27295a1.82114,1.82114,0,0,1-.22705,2.2915l-.76367.76367a.31773.31773,0,0,0-.03955.39893l.84863,1.27295Z" style="fill:#fff"/></svg>