<?xml version="1.0" ?><svg data-name="Layer 23" height="24" id="Layer_23" viewBox="0 0 24 24" width="24" xmlns="http://www.w3.org/2000/svg"><title/><rect height="2" style="fill:#616f7d" width="4" x="7" y="2"/><rect height="2" style="fill:#616f7d" width="4" x="13" y="2"/><path d="M18,3H6A2,2,0,0,0,4,5V20a2,2,0,0,0,2,2H18a2,2,0,0,0,2-2V5A2,2,0,0,0,18,3Z" style="fill:#738394"/><rect height="10" style="fill:#ffbe4d" width="16" x="4" y="9"/><rect height="2" style="fill:#fff" width="8" x="8" y="11"/><circle cx="12" cy="6" r="1" style="fill:#fff"/><circle cx="7" cy="6" r="1" style="fill:#fff"/><circle cx="17" cy="6" r="1" style="fill:#fff"/></svg>