<?xml version="1.0" ?><svg data-name="Layer 6" height="24" id="Layer_6" viewBox="0 0 24 24" width="24" xmlns="http://www.w3.org/2000/svg"><title/><path d="M8,2H8A1,1,0,0,1,9,3V9A0,0,0,0,1,9,9H7A0,0,0,0,1,7,9V3A1,1,0,0,1,8,2Z" style="fill:#738394"/><path d="M16,2h0a1,1,0,0,1,1,1V9a0,0,0,0,1,0,0H15a0,0,0,0,1,0,0V3a1,1,0,0,1,1-1Z" style="fill:#738394"/><path d="M5,8v6.5a2.99985,2.99985,0,0,0,1.2,2.4L9,19v3h6V19l2.8-2.1A2.99985,2.99985,0,0,0,19,14.5V8Z" style="fill:#67c7a5"/><polygon points="11.256 16.478 8.27 13.48 9.684 12.066 11.256 13.638 14.478 10.416 15.892 11.83 11.256 16.478" style="fill:#fff"/></svg>