<?xml version="1.0" ?><svg data-name="Layer 6" height="24" id="Layer_6" viewBox="0 0 24 24" width="24" xmlns="http://www.w3.org/2000/svg"><title/><path d="M8,2H8A1,1,0,0,1,9,3V9A0,0,0,0,1,9,9H7A0,0,0,0,1,7,9V3A1,1,0,0,1,8,2Z" style="fill:#738394"/><path d="M16,2h0a1,1,0,0,1,1,1V9a0,0,0,0,1,0,0H15a0,0,0,0,1,0,0V3A1,1,0,0,1,16,2Z" style="fill:#738394"/><path d="M5,8v6.5a2.99985,2.99985,0,0,0,1.2,2.4L9,19v3h6V19l2.8-2.1A2.99985,2.99985,0,0,0,19,14.5V8Z" style="fill:#fa6d62"/><polygon points="15.207 14.993 13.793 16.407 12 14.614 10.207 16.407 8.793 14.993 10.586 13.2 8.793 11.407 10.207 9.993 12 11.786 13.793 9.993 15.207 11.407 13.414 13.2 15.207 14.993" style="fill:#fff"/></svg>