<?xml version="1.0" ?><svg data-name="Layer 23" height="24" id="Layer_23" viewBox="0 0 24 24" width="24" xmlns="http://www.w3.org/2000/svg"><title/><rect height="16" rx="2" ry="2" style="fill:#67c7a5" width="18" x="3" y="5"/><circle cx="12" cy="8" r="5" style="fill:#fff"/><path d="M12,8.75a.75.75,0,0,1-.53027-1.28027l3-3a.74992.74992,0,0,1,1.06055,1.06055l-3,3A.74674.74674,0,0,1,12,8.75Z" style="fill:#738394"/><path d="M12,4A4,4,0,1,1,8,8a4.00452,4.00452,0,0,1,4-4m0-2a6,6,0,1,0,6,6,6,6,0,0,0-6-6Z" style="fill:#67c7a5"/></svg>