<?xml version="1.0" ?><svg data-name="Layer 31" height="24" id="Layer_31" viewBox="0 0 24 24" width="24" xmlns="http://www.w3.org/2000/svg"><title/><rect height="3" style="fill:#c78657" width="2" x="2" y="18"/><rect height="3" style="fill:#c78657" width="2" x="20" y="18"/><path d="M6,5H18a3,3,0,0,1,3,3v7a0,0,0,0,1,0,0H3a0,0,0,0,1,0,0V8A3,3,0,0,1,6,5Z" style="fill:#ffbe4d"/><path d="M11,12c0,1.65685-1.34315,1-3,1s-3,.65685-3-1a3,3,0,0,1,6,0Z" style="fill:#fff4ab"/><path d="M19,12c0,1.65685-1.34315,1-3,1s-3,.65685-3-1a3,3,0,0,1,6,0Z" style="fill:#fff4ab"/><path d="M5,12H19a3,3,0,0,1,3,3v4a0,0,0,0,1,0,0H2a0,0,0,0,1,0,0V15A3,3,0,0,1,5,12Z" style="fill:#fa6d62"/></svg>