<?xml version="1.0" ?><svg data-name="Layer 3" height="24" id="Layer_3" viewBox="0 0 24 24" width="24" xmlns="http://www.w3.org/2000/svg"><title/><rect height="3" style="fill:#738394" width="8" x="8" y="17"/><path d="M20,18a2,2,0,0,0,2-2V6a2,2,0,0,0-2-2H4A2,2,0,0,0,2,6V16a2,2,0,0,0,2,2Z" style="fill:#73cdff"/><path d="M12,11.66223a3.98512,3.98512,0,0,0-3.54578,2.18524L10.12146,15a1.98784,1.98784,0,0,1,3.75708,0l1.66724-1.15253A3.98494,3.98494,0,0,0,12,11.66223Z" style="fill:#fff"/><path d="M12,7.66223A7.98767,7.98767,0,0,0,5.14227,11.558l1.64819,1.13934a5.98839,5.98839,0,0,1,10.41907,0L18.85773,11.558A7.98767,7.98767,0,0,0,12,7.66223Z" style="fill:#fff"/></svg>