<?xml version="1.0" ?><svg data-name="Layer 3" height="24" id="Layer_3" viewBox="0 0 24 24" width="24" xmlns="http://www.w3.org/2000/svg"><title/><path d="M13,10H11V6a2.002,2.002,0,0,1,2-2h2V2h2V4a2.002,2.002,0,0,1-2,2H13Z" style="fill:#b3c1c9"/><path d="M17,9H7a5.00008,5.00008,0,1,0,2.97253,9h4.05493A4.99315,4.99315,0,1,0,17,9Z" style="fill:#d9e3e6"/><circle cx="17" cy="12" r="1" style="fill:#52c1ff"/><path d="M10,14.5a.5.5,0,0,1-.5.5H8v1.5a.5.5,0,0,1-.5.5h-1a.5.5,0,0,1-.5-.5V15H4.5a.5.5,0,0,1-.5-.5v-1a.5.5,0,0,1,.5-.5H6V11.5a.5.5,0,0,1,.5-.5h1a.5.5,0,0,1,.5.5V13H9.5a.5.5,0,0,1,.5.5Z" style="fill:#738394"/><circle cx="15" cy="14" r="1" style="fill:#4eba94"/><circle cx="17" cy="16" r="1" style="fill:#738394"/><circle cx="19" cy="14" r="1" style="fill:#fa6d62"/></svg>