<?xml version="1.0" ?><svg data-name="Layer 24" height="24" id="Layer_24" viewBox="0 0 24 24" width="24" xmlns="http://www.w3.org/2000/svg"><title/><circle cx="6.4494" cy="6.86731" r="1.19592" style="fill:#ffbe4d"/><path d="M14,19H12.5V5.12109a1.3714,1.3714,0,0,0-2.34082-.96973L8.78027,5.53027,7.71973,4.46973,9.09863,3.09082A2.87124,2.87124,0,0,1,14,5.12109Z" style="fill:#b3c1c9"/><path d="M17.25,22h-8a4,4,0,0,1,8,0Z" style="fill:#738394"/><path d="M7.97408,3.24991h0a2.79058,2.79058,0,0,1,2.79058,2.79058v1.3193a0,0,0,0,1,0,0H5.1835a0,0,0,0,1,0,0V6.04049A2.79058,2.79058,0,0,1,7.97408,3.24991Z" style="fill:#fa6d62" transform="translate(6.08665 -4.08478) rotate(45)"/></svg>