<svg id="Layer_32" data-name="Layer 32" xmlns="http://www.w3.org/2000/svg" width="24" height="24" viewBox="0 0 24 24"><title>026_003</title><path d="M8.67772,3.0025a.34114.34114,0,0,0-.29564.16793L7.555,4.55752a.344.344,0,0,1-.46353.1242L5.68167,3.894a.34353.34353,0,0,0-.51207.29565L5.14688,5.80443a.3442.3442,0,0,1-.33933.33933l-1.61479.02271a.34422.34422,0,0,0-.29565.51207l.78773,1.40981a.34419.34419,0,0,1-.1242.46353L2.17355,9.379a.34421.34421,0,0,0,0,.59128l1.3871.82707a.34419.34419,0,0,1,.1242.46353l-.78773,1.40981a.34421.34421,0,0,0,.29565.51207l1.61479.02271a.3442.3442,0,0,1,.33933.33933l.02271,1.6148a.34353.34353,0,0,0,.51207.29564l1.40981-.78773a.344.344,0,0,1,.46353.1242l.82707,1.3871a.34421.34421,0,0,0,.59128,0l.82707-1.3871a.344.344,0,0,1,.46353-.1242l1.40981.78773a.34353.34353,0,0,0,.51207-.29564l.02271-1.6148a.3442.3442,0,0,1,.33933-.33933l1.61479-.02271a.34422.34422,0,0,0,.29565-.51207l-.78773-1.40981a.3442.3442,0,0,1,.1242-.46353l1.3871-.82707a.34421.34421,0,0,0,0-.59128l-1.3871-.82707a.3442.3442,0,0,1-.1242-.46353l.78773-1.40981a.34422.34422,0,0,0-.29565-.51207l-1.61479-.02271a.3442.3442,0,0,1-.33933-.33933l-.02271-1.61479a.34353.34353,0,0,0-.51207-.29565L10.264,4.68172a.344.344,0,0,1-.46353-.1242l-.82707-1.3871a.34114.34114,0,0,0-.29564-.16793Z" style="fill:#ffbe4d"/><circle cx="8.67772" cy="9.672" r="3.75" style="fill:#fff4ab"/><path d="M20.26686,12.55521a3.88521,3.88521,0,0,0-7.10058-2.7625A2.45135,2.45135,0,0,0,12.02085,9.5a2.45952,2.45952,0,0,0-2.40946,3.04128A2.8309,2.8309,0,0,0,10.66669,18h8.5a2.83361,2.83361,0,0,0,1.10021-5.44479Z" style="fill:#73cdff"/></svg>