<?xml version="1.0" ?><svg data-name="Layer 3" height="24" id="Layer_3" viewBox="0 0 24 24" width="24" xmlns="http://www.w3.org/2000/svg"><title/><rect height="12" style="fill:#fff" width="18" x="3" y="8"/><rect height="1.99979" style="fill:#c8d1d4" transform="translate(0.06497 11.15685) rotate(-45)" width="7.07107" x="9.96447" y="4.50011"/><rect height="7.07107" style="fill:#c8d1d4" transform="translate(-0.81371 9.03553) rotate(-45)" width="1.99979" x="9.50011" y="1.96447"/><path d="M20,7H4A2,2,0,0,0,2,9V19a2,2,0,0,0,2,2H20a2,2,0,0,0,2-2V9A2,2,0,0,0,20,7ZM16,18a1,1,0,0,1-1,1H5a1,1,0,0,1-1-1V10A1,1,0,0,1,5,9H15a1,1,0,0,1,1,1Z" style="fill:#738394"/><circle cx="19" cy="13" r="1" style="fill:#fff"/><circle cx="19" cy="10" r="1" style="fill:#ffd58c"/></svg>