<?xml version="1.0" ?><svg data-name="Layer 31" height="24" id="Layer_31" viewBox="0 0 24 24" width="24" xmlns="http://www.w3.org/2000/svg"><title/><rect height="16" style="fill:#738394" width="2" x="11" y="5"/><rect height="2" rx="1" ry="1" style="fill:#d9925f" width="6" x="9" y="20"/><path d="M12,11.75A4.7554,4.7554,0,0,1,7.25,7h1.5a3.25,3.25,0,0,0,6.5,0h1.5A4.7554,4.7554,0,0,1,12,11.75Z" style="fill:#738394"/><path d="M12,17.75A4.7554,4.7554,0,0,1,7.25,13h1.5a3.25,3.25,0,0,0,6.5,0h1.5A4.7554,4.7554,0,0,1,12,17.75Z" style="fill:#738394"/><circle cx="12" cy="4" r="2" style="fill:#c78657"/><circle cx="8" cy="7" r="1" style="fill:#c78657"/><circle cx="16" cy="7" r="1" style="fill:#c78657"/><circle cx="8" cy="13" r="1" style="fill:#c78657"/><circle cx="16" cy="13" r="1" style="fill:#c78657"/></svg>