<?xml version="1.0" ?><svg data-name="Layer 31" height="24" id="Layer_31" viewBox="0 0 24 24" width="24" xmlns="http://www.w3.org/2000/svg"><title/><rect height="1.5" style="fill:#e3a96b" width="16" x="4" y="15.49999"/><path d="M12,12a.99942.99942,0,0,1-1-1v-.22168a1.80579,1.80579,0,0,0-.79785-1.376,3.00083,3.00083,0,1,1,4.39941-3.89648.99967.99967,0,0,1-1.73242.998,1.00914,1.00914,0,0,0-1.13867-.4707.99185.99185,0,0,0-.70605.73828,1.01024,1.01024,0,0,0,.377,1.0293A3.7539,3.7539,0,0,1,13,10.77832V11A.99942.99942,0,0,1,12,12Z" style="fill:#738394"/><path d="M20.999,18a.99942.99942,0,0,1-.55371-.168L12,12.20215,3.55469,17.832A1,1,0,0,1,2.44531,16.168L11.193,10.3359a1.45485,1.45485,0,0,1,1.61406,0L21.55469,16.168A1,1,0,0,1,20.999,18Z" style="fill:#c78657"/></svg>