<?xml version="1.0" ?><svg data-name="Layer 23" height="24" id="Layer_23" viewBox="0 0 24 24" width="24" xmlns="http://www.w3.org/2000/svg"><title/><circle cx="12" cy="14" r="7" style="fill:#fff"/><path d="M18,8,7,19a6.37015,6.37015,0,0,0,4.83541,1.58942A6.93475,6.93475,0,0,0,19,13.91C19,11.96552,19.42244,9.22066,18,8Z" style="fill:#73cdff"/><path d="M18,2H6A2,2,0,0,0,4,4V20a2,2,0,0,0,2,2H18a2,2,0,0,0,2-2V4A2,2,0,0,0,18,2ZM12,20a6,6,0,1,1,6-6A6,6,0,0,1,12,20Z" style="fill:#4c9ae8"/><circle cx="11" cy="5" r="1" style="fill:#d9f2ff"/><circle cx="7" cy="5" r="1" style="fill:#d9f2ff"/></svg>