<?xml version="1.0" ?><svg data-name="Layer 6" height="24" id="Layer_6" viewBox="0 0 24 24" width="24" xmlns="http://www.w3.org/2000/svg"><title/><path d="M12,8a9.96882,9.96882,0,0,0-7.071,2.929l1.41687,1.41687a7.98708,7.98708,0,0,1,11.30835,0L19.071,10.929A9.96882,9.96882,0,0,0,12,8Z" style="fill:#67c7a5"/><path d="M3.51868,9.51868a11.98091,11.98091,0,0,1,16.96265,0l1.41815-1.41815a13.9999,13.9999,0,0,0-19.799,0Z" style="fill:#67c7a5"/><path d="M7.75739,13.75739l1.41553,1.41553a3.99354,3.99354,0,0,1,5.65417,0l1.41559-1.41559a6,6,0,0,0-8.48529.00006Z" style="fill:#67c7a5"/><circle cx="12" cy="18" r="2" style="fill:#67c7a5"/></svg>